<svg width="103" height="60" fill="none" xmlns="http://www.w3.org/2000/svg">
  <path fill-rule="evenodd" clip-rule="evenodd" d="m38.892 7 7.008 6.634-13.008-.008v32.188h34V33.507l7 6.627V7h-35Zm27.692 25.728-19.87-18.81h19.87v18.81Zm-6.169 8.377H38.272V19.459h1.565V39.64h20.578v1.465ZM43.501 50.1l-.818 1.685-.818-1.685h-.686l1.194 2.246v1.309h.62v-1.309l1.191-2.246h-.683Zm1.028 3.555.288-.828h1.377l.29.828h.645l-1.346-3.555h-.554l-1.343 3.555h.643Zm.976-2.8.515 1.474h-1.03l.515-1.475Zm3.257 1.389a.807.807 0 0 0-.134.451c0 .3.105.543.315.73.211.186.493.279.844.279.352 0 .655-.096.909-.286l.2.237h.688l-.522-.618c.205-.28.307-.639.307-1.077h-.515c0 .24-.05.457-.149.652l-.686-.81.242-.176c.17-.124.294-.247.369-.371a.785.785 0 0 0 .112-.41.732.732 0 0 0-.25-.564.895.895 0 0 0-.634-.23c-.286 0-.514.082-.683.244-.17.162-.254.381-.254.66 0 .114.026.231.08.354.056.122.152.27.29.444-.263.189-.44.352-.529.49Zm1.604.786a.906.906 0 0 1-.562.2.585.585 0 0 1-.424-.154.533.533 0 0 1-.16-.4c0-.19.099-.36.294-.508l.076-.054.776.916Zm-.637-1.575c-.168-.207-.252-.378-.252-.515 0-.119.035-.217.103-.295a.348.348 0 0 1 .276-.118.37.37 0 0 1 .266.1c.07.066.105.145.105.237 0 .14-.05.255-.152.345l-.075.06-.271.186Zm5.786 1.931c.244-.213.384-.51.42-.888h-.615c-.033.254-.11.435-.232.544-.122.11-.305.164-.547.164-.265 0-.467-.101-.606-.303-.136-.202-.205-.495-.205-.88v-.314c.004-.38.077-.666.22-.862.145-.197.351-.295.62-.295.231 0 .406.057.525.17.12.113.195.297.225.552h.615c-.04-.389-.178-.69-.418-.903-.239-.213-.555-.32-.947-.32-.291 0-.548.07-.771.208a1.346 1.346 0 0 0-.51.59 2.082 2.082 0 0 0-.179.887v.332c.005.327.066.614.183.862.117.247.283.438.498.573.217.134.467.2.75.2.405 0 .73-.105.974-.317Zm3.63-.498c.12-.264.18-.57.18-.918v-.197a2.149 2.149 0 0 0-.185-.911 1.356 1.356 0 0 0-.52-.6c-.223-.14-.479-.21-.769-.21-.29 0-.547.07-.771.212-.223.14-.396.342-.52.608a2.174 2.174 0 0 0-.183.918v.2c.001.34.063.64.185.9.124.261.298.462.523.604.226.14.483.21.771.21.291 0 .549-.07.772-.21.224-.142.397-.344.517-.606Zm-.661-2.01c.15.21.224.513.224.907v.185c0 .4-.074.705-.222.913-.146.209-.356.313-.63.313a.738.738 0 0 1-.635-.32c-.15-.213-.227-.515-.227-.906v-.205c.004-.382.08-.678.23-.886a.73.73 0 0 1 .627-.315c.274 0 .485.105.633.315Z" fill="#AFB1B8"/>
</svg>
