<svg width="103" height="60" fill="none" xmlns="http://www.w3.org/2000/svg">
  <path fill-rule="evenodd" clip-rule="evenodd" d="M50.63 5.935h-.136c-.21-.013-.42-.018-.63-.023h-.455c-.398 0-.802.01-1.204.03a.627.627 0 0 0-.092 0 28.276 28.276 0 0 0-10.516 2.683l-.432.208v22.142l1.012-.344c.888-.305 1.834-.58 2.813-.834a34.329 34.329 0 0 1 8.095-1.075v2.909a24.44 24.44 0 0 0-1.065.03h-.084a32.362 32.362 0 0 0-6.228.956 31.634 31.634 0 0 0-7.42 2.892V7.112a29.726 29.726 0 0 1 7.784-3.166A29.793 29.793 0 0 1 49.41 3h.427c.511.013 1.01.036 1.477.071 1.233.087 2.457.282 3.656.583v2.863a22.626 22.626 0 0 0-3.542-.534l-.072-.006a8.745 8.745 0 0 0-.724-.042Zm5.04 2.926c.635.049 1.292.072 1.958.072a31.467 31.467 0 0 0 7.713-.99 31.774 31.774 0 0 0 7.417-2.893v27.89a29.814 29.814 0 0 1-7.787 3.166 29.943 29.943 0 0 1-7.336.944 22.405 22.405 0 0 1-5.565-.656V8.322c.43.1.873.191 1.323.267.739.125 1.518.216 2.277.272Zm14.194.217-1.012.34c-.93.313-1.87.593-2.813.842a34.263 34.263 0 0 1-8.406 1.078c-.66 0-1.268-.018-1.855-.056l-.807-.053V34.006l.694.06c.642.057 1.305.085 1.973.085a26.882 26.882 0 0 0 6.62-.857 27.761 27.761 0 0 0 5.173-1.86l.433-.208V9.078Z" fill="#AFB1B8"/>
  <path d="M36.254 45.212a1.492 1.492 0 0 0-1.126-.455 1.673 1.673 0 0 0-.65.122 1.462 1.462 0 0 0-.832.842c-.08.2-.119.413-.117.628v3.794c-.009.267.042.533.15.778.09.195.219.368.38.509.15.127.329.22.52.27.185.051.375.078.567.078.211.002.42-.043.612-.132a1.6 1.6 0 0 0 .959-1.465v-.424h-.992v.338a.883.883 0 0 1-.058.338.609.609 0 0 1-.144.214.698.698 0 0 1-.415.145.503.503 0 0 1-.465-.204.899.899 0 0 1-.132-.508v-3.538c-.006-.196.035-.39.121-.567a.507.507 0 0 1 .486-.229.527.527 0 0 1 .443.214.807.807 0 0 1 .164.509v.328h.982v-.387a1.788 1.788 0 0 0-.122-.664 1.562 1.562 0 0 0-.331-.534ZM42.146 45.17a1.765 1.765 0 0 0-1.129-.418c-.202 0-.402.037-.591.107a1.558 1.558 0 0 0-.908.842c-.1.231-.15.482-.145.735v3.638c-.007.256.043.51.144.745.09.196.221.37.385.509.151.14.33.25.524.32.19.07.39.106.591.107a1.715 1.715 0 0 0 1.129-.427c.158-.142.285-.315.374-.509.102-.234.151-.489.144-.745v-3.639a1.771 1.771 0 0 0-.144-.734 1.644 1.644 0 0 0-.374-.532Zm-.463 4.904a.653.653 0 0 1-.197.527.726.726 0 0 1-.934 0 .652.652 0 0 1-.197-.527v-3.639a.654.654 0 0 1 .197-.526.727.727 0 0 1 .934 0 .65.65 0 0 1 .197.526v3.64ZM49.884 51.7v-6.89h-.954l-1.252 3.647h-.017l-1.263-3.646h-.943v6.888h.984v-4.19h.017l.964 2.962h.491l.971-2.962h.018v4.19h.984ZM55.475 45.294c-.152-.17-.343-.3-.557-.377a2.184 2.184 0 0 0-.713-.107h-1.462v6.89h.981v-2.691h.506c.306.014.611-.051.886-.188a1.43 1.43 0 0 0 .538-.527c.114-.183.19-.387.226-.6a4.9 4.9 0 0 0 .053-.783c.01-.33-.023-.662-.096-.984a1.467 1.467 0 0 0-.362-.633Zm-.506 2.1a.87.87 0 0 1-.091.359.552.552 0 0 1-.253.241 1.006 1.006 0 0 1-.463.087h-.448v-2.342h.506a.942.942 0 0 1 .443.086.557.557 0 0 1 .23.254c.054.121.083.252.086.384v.458c0 .16.01.326 0 .473h-.01ZM60.124 44.81h-.804l-1.518 6.89h.982l.288-1.48h1.338l.289 1.48h.981l-1.556-6.89Zm-.905 4.471.483-2.497h.018l.48 2.497h-.981ZM66.466 48.96h-.017l-1.483-4.15h-.943v6.89h.981v-4.143h.02l1.5 4.142h.924v-6.888h-.981v4.15ZM72.464 44.81l-.789 2.74h-.02l-.79-2.74h-1.04l1.35 3.978v2.911h.98v-2.911l1.35-3.977h-1.04ZM33.517 53.645h.473v1.327h.321v-1.328h.47v-.272h-1.264v.273ZM37.494 53.372l-.62 1.6h.341l.132-.364h.637l.137.364h.349l-.635-1.6h-.341Zm-.051.967.218-.593.217.593h-.435ZM41.425 54.382h.37v.206a.613.613 0 0 1-.38.135.404.404 0 0 1-.34-.153.669.669 0 0 1-.118-.417c0-.356.154-.534.46-.534a.338.338 0 0 1 .362.255l.316-.062c-.068-.312-.293-.47-.678-.47a.804.804 0 0 0-.559.206.78.78 0 0 0-.23.615.873.873 0 0 0 .205.6.776.776 0 0 0 .607.235.96.96 0 0 0 .678-.255v-.63h-.693v.27ZM45.44 53.372h-.324v1.6h1.12V54.7h-.797v-1.328ZM48.834 53.372h-.324v1.6h.324v-1.6ZM52.153 54.44l-.655-1.068h-.314v1.6h.302v-1.045l.642 1.045h.321v-1.6h-.296v1.069ZM55.154 54.267h.796v-.272h-.796v-.35h.857v-.273H54.83v1.6h1.214V54.7h-.89v-.433ZM62.43 54.003h-.63v-.63h-.322v1.599h.321v-.7h.63v.7h.321v-1.6h-.32v.631ZM65.447 54.267h.8v-.272h-.8v-.35h.86v-.273h-1.181v1.6h1.212V54.7h-.891v-.433ZM69.54 54.268c.278-.044.42-.191.42-.445a.383.383 0 0 0-.157-.356.904.904 0 0 0-.468-.094h-.678v1.599h.322v-.669h.063a.432.432 0 0 1 .2.036c.047.029.086.069.113.117l.35.508h.384l-.195-.312a1.114 1.114 0 0 0-.354-.384Zm-.324-.222h-.237v-.401h.252a.84.84 0 0 1 .327.038.208.208 0 0 1 .045.255.208.208 0 0 1-.06.07.912.912 0 0 1-.327.038ZM72.626 54.267h.797v-.272h-.797v-.35h.86v-.273h-1.183v1.6h1.214V54.7h-.89v-.433Z" fill="#AFB1B8"/>
</svg>
