<svg width="10" height="16" fill="none" xmlns="http://www.w3.org/2000/svg">
  <path d="M8.351 0H1.609C.812 0 .164.673.164 1.5v13c0 .827.648 1.5 1.445 1.5h6.742c.797 0 1.445-.673 1.445-1.5v-13C9.796.673 9.148 0 8.35 0ZM1.609 1h6.742c.266 0 .482.224.482.5V12H1.128V1.5c0-.276.215-.5.481-.5Zm6.742 14H1.609a.491.491 0 0 1-.481-.5V13h7.705v1.5c0 .276-.216.5-.482.5Z" fill="#757575"/>
  <path d="M2.431 13.739a.457.457 0 0 1 0 .66.492.492 0 0 1-.68 0 .457.457 0 0 1 0-.66.492.492 0 0 1 .68 0Z" fill="#757575"/>
</svg>
